<svg width="42" height="42" viewBox="0 0 42 42" fill="none" xmlns="http://www.w3.org/2000/svg">
<circle cx="21" cy="21" r="20" transform="rotate(180 21 21)" fill="#54AFBC" stroke="black" stroke-width="2"/>
<rect width="28" height="26" transform="matrix(-1 0 0 -1 35 34)" fill="#54AFBC"/>
<path fill-rule="evenodd" clip-rule="evenodd" d="M19.8687 29.6995C19.527 30.0168 18.973 30.0168 18.6313 29.6995L9.88128 21.5745C9.71718 21.4222 9.625 21.2155 9.625 21C9.625 20.7845 9.71718 20.5779 9.88128 20.4255L18.6313 12.3005C18.973 11.9832 19.527 11.9832 19.8687 12.3005C20.2104 12.6178 20.2104 13.1322 19.8687 13.4495L12.6124 20.1875L31.5 20.1875C31.9832 20.1875 32.375 20.5513 32.375 21C32.375 21.4487 31.9832 21.8125 31.5 21.8125L12.6124 21.8125L19.8687 28.5505C20.2104 28.8678 20.2104 29.3822 19.8687 29.6995Z" fill="#0F172A"/>
</svg>
