<svg width="44" height="44" viewBox="0 0 44 44" fill="none" xmlns="http://www.w3.org/2000/svg">
<path d="M35.4585 37.1308C32.3772 33.0643 27.4954 30.4375 22 30.4375C16.5046 30.4375 11.6228 33.0643 8.54154 37.1308M35.4585 37.1308C39.6254 33.4218 42.25 28.0174 42.25 22C42.25 10.8162 33.1838 1.75 22 1.75C10.8162 1.75 1.75 10.8162 1.75 22C1.75 28.0174 4.37463 33.4218 8.54154 37.1308M35.4585 37.1308C31.8809 40.3153 27.1664 42.25 22 42.25C16.8336 42.25 12.1191 40.3153 8.54154 37.1308M28.75 16.9375C28.75 20.6654 25.7279 23.6875 22 23.6875C18.2721 23.6875 15.25 20.6654 15.25 16.9375C15.25 13.2096 18.2721 10.1875 22 10.1875C25.7279 10.1875 28.75 13.2096 28.75 16.9375Z" stroke="#54AFBC" stroke-width="2" stroke-linecap="round" stroke-linejoin="round"/>
</svg>
