<svg width="28" height="27" viewBox="0 0 28 27" fill="none" xmlns="http://www.w3.org/2000/svg">
<path d="M6.84343 12.6667C7.91857 12.6667 8.88864 12.0723 9.55213 11.2263C10.583 9.91187 11.8823 8.81794 13.3674 8.02703C14.3302 7.51426 15.1657 6.75246 15.5709 5.7396C15.8543 5.03088 16 4.27457 16 3.51125V2.66675C16 2.11446 16.4477 1.66675 17 1.66675C18.6569 1.66675 20 3.00989 20 4.66675C20 6.20225 19.6539 7.65693 19.0355 8.95702C18.6814 9.70147 19.1782 10.6667 20.0025 10.6667M20.0025 10.6667H24.1703C25.5392 10.6667 26.7644 11.5921 26.9093 12.9532C26.9693 13.5162 27 14.0879 27 14.6667C27 18.4636 25.6775 21.9515 23.468 24.695C22.9512 25.3368 22.1523 25.6667 21.3283 25.6667H15.9737C15.3288 25.6667 14.6881 25.5628 14.0763 25.3588L9.9237 23.9746C9.3119 23.7707 8.67123 23.6667 8.02633 23.6667H5.87228M20.0025 10.6667H17M5.87228 23.6667C5.98269 23.9395 6.10285 24.2073 6.23231 24.4697C6.49516 25.0024 6.12826 25.6667 5.53423 25.6667H4.32385C3.1389 25.6667 2.03988 24.9761 1.69408 23.8427C1.24278 22.3636 1 20.7935 1 19.1667C1 17.0968 1.39307 15.1187 2.10865 13.3029C2.5154 12.2708 3.55645 11.6667 4.66581 11.6667H6.06949C6.69871 11.6667 7.06307 12.408 6.73641 12.9458C5.63451 14.7598 5 16.8892 5 19.1667C5 20.7581 5.30976 22.2771 5.87228 23.6667Z" stroke="#0F172A" stroke-width="2" stroke-linecap="round" stroke-linejoin="round"/>
</svg>
